<svg width="35" height="32" viewBox="0 0 35 32" fill="none" xmlns="http://www.w3.org/2000/svg">
<g clip-path="url(#clip0_263_187)">
<path d="M32.0597 16.0017C32.0597 24.5547 25.0029 31.5029 16.2798 31.5029C7.55669 31.5029 0.5 24.5547 0.5 16.0017C0.5 7.44871 7.55669 0.500488 16.2798 0.500488C25.0029 0.500488 32.0597 7.44871 32.0597 16.0017Z" fill="white" stroke="#48A237"/>
<path d="M34.2302 6.87235C32.5671 3.67212 26.4659 3.26838 19.4631 5.95659C17.4595 3.55395 14.4039 2.62835 12.1498 3.90843C11.3683 4.35154 10.7672 5.01129 10.3665 5.80888C9.08415 5.58241 7.80179 5.7498 6.67974 6.38C4.05494 7.87673 3.22342 11.4413 4.51578 14.8188C3.42378 16.2761 2.8828 17.8025 3.22342 19.2204C3.68426 21.1405 5.55769 22.5585 8.26265 23.3561C7.04041 24.6952 6.05861 26.2904 5.46752 27.9743C10.1461 32.1296 17.0387 33.1143 22.7792 30.6822C20.6454 27.4917 18.2809 25.355 14.8948 24.0749C15.1051 24.065 18.8921 23.5923 20.6353 23.2083C29.0608 21.3078 34.7611 16.7488 34.2503 12.1306C34.2402 12.1207 35.6328 9.56056 34.2302 6.87235Z" fill="url(#paint0_linear_263_187)"/>
<path d="M28.7105 26.3321C27.2378 24.599 25.4646 23.2992 23.5912 22.413C30.4837 20.3354 34.9218 15.9338 34.2407 12.123C31.0146 16.2292 17.1893 21.3988 7.69201 17.529C7.30129 20.3354 9.28493 22.1078 12.1902 23.4372C16.5181 25.4163 19.2732 27.6615 21.357 31.2162C24.2522 30.2709 26.8069 28.5476 28.7105 26.3321Z" fill="url(#paint1_linear_263_187)"/>
<path d="M18.395 6.39036C17.5635 4.84441 15.6299 4.19451 13.997 4.94287C12.374 5.69124 11.6326 7.5523 12.2938 9.16719C14.2975 8.13327 16.4715 7.15842 18.395 6.39036Z" fill="#F0F0F0"/>
<path d="M16.1083 7.34577C15.3771 6.0066 14.0847 5.27792 13.1329 5.71118C12.8324 5.84904 12.612 6.07551 12.4517 6.38078C12.4417 6.41032 12.4216 6.43001 12.4116 6.45955C11.9908 7.27684 11.9207 8.26153 12.2914 9.16744C13.5337 8.52739 14.836 7.90704 16.1083 7.34577Z" fill="black"/>
<path d="M13.1229 8.75594C12.0409 7.20013 9.94711 6.59947 8.15383 7.41677C6.16017 8.33253 5.2986 10.6564 6.23031 12.6159C6.28039 12.7144 6.33048 12.803 6.38058 12.9015C7.82321 11.6116 10.3879 10.1148 13.1229 8.75594Z" fill="#F0F0F0"/>
<path d="M10.5676 10.096C9.68596 8.61894 8.22329 7.84102 7.14131 8.33337C6.79066 8.49092 6.52017 8.76663 6.32982 9.12113C6.30979 9.15067 6.29977 9.18021 6.27974 9.20974C5.75878 10.2437 5.69866 11.4844 6.22963 12.6168C6.27974 12.7152 6.32982 12.8039 6.37991 12.9023C7.3617 12.026 8.85444 11.0511 10.5676 10.096Z" fill="black"/>
</g>
<defs>
<linearGradient id="paint0_linear_263_187" x1="3.21688" y1="17.8121" x2="35.6548" y2="17.6541" gradientUnits="userSpaceOnUse">
<stop stop-color="#279B53"/>
<stop offset="1" stop-color="#39E674"/>
</linearGradient>
<linearGradient id="paint1_linear_263_187" x1="7.64301" y1="21.6663" x2="31.6946" y2="21.6663" gradientUnits="userSpaceOnUse">
<stop stop-color="#5EDF60"/>
<stop offset="1" stop-color="#84EE60"/>
</linearGradient>
<clipPath id="clip0_263_187">
<rect width="35" height="31.9745" fill="white"/>
</clipPath>
</defs>
</svg>
