<svg width="21" height="21" viewBox="0 0 21 21" fill="none" xmlns="http://www.w3.org/2000/svg">
<path d="M20.37 17.43L15.645 12.705C16.38 11.445 16.8 9.975 16.8 8.4C16.8 3.78 13.02 0 8.4 0C3.78 0 0 3.78 0 8.4C0 13.02 3.78 16.8 8.4 16.8C9.975 16.8 11.445 16.38 12.705 15.645L17.43 20.37C18.27 21.21 19.53 21.21 20.37 20.37C21.21 19.53 21.21 18.27 20.37 17.43ZM8.4 13.65C5.46 13.65 3.15 11.34 3.15 8.4C3.15 5.46 5.46 3.15 8.4 3.15C11.34 3.15 13.65 5.46 13.65 8.4C13.65 11.34 11.34 13.65 8.4 13.65Z" fill="white"/>
</svg>
