<svg width="280" height="157" viewBox="0 0 280 157" fill="none" xmlns="http://www.w3.org/2000/svg">
<rect x="280" y="157" width="280" height="157" rx="10" transform="rotate(-180 280 157)" fill="#181818" fill-opacity="0.6"/>
<path d="M150.026 61.6746C152.395 63.2585 152.395 66.7415 150.026 68.3254L132.723 79.8924C130.065 81.6692 126.5 79.7641 126.5 76.567L126.5 53.433C126.5 50.2359 130.065 48.3308 132.723 50.1076L150.026 61.6746Z" fill="white"/>
<path d="M98.7181 105H97.1701V98.9682H94.4748V105H92.9218V97.6757H98.7181V105ZM102.633 101.122H103.144C103.621 101.122 103.979 101.029 104.216 100.842C104.453 100.652 104.572 100.376 104.572 100.015C104.572 99.6512 104.471 99.3824 104.271 99.2087C104.074 99.035 103.763 98.9482 103.339 98.9482H102.633V101.122ZM106.14 99.9602C106.14 100.748 105.892 101.351 105.398 101.769C104.907 102.186 104.207 102.395 103.299 102.395H102.633V105H101.08V97.6757H103.419C104.308 97.6757 104.982 97.8678 105.443 98.2518C105.907 98.6326 106.14 99.202 106.14 99.9602ZM112.253 105H108.035V97.6757H112.253V98.9482H109.588V100.556H112.068V101.829H109.588V103.717H112.253V105ZM113.428 103.707H113.994C114.478 102.739 114.861 101.772 115.141 100.807C115.422 99.8383 115.63 98.7946 115.767 97.6757H120.036V103.707H121.013V107.134H119.515V105H114.926V107.134H113.428V103.707ZM117 98.9682C116.893 99.7331 116.714 100.543 116.464 101.398C116.217 102.253 115.938 103.023 115.627 103.707H118.488V98.9682H117ZM128.454 105H126.906V98.9682H124.211V105H122.658V97.6757H128.454V105ZM132.369 101.122H132.88C133.357 101.122 133.715 101.029 133.952 100.842C134.189 100.652 134.307 100.376 134.307 100.015C134.307 99.6512 134.207 99.3824 134.007 99.2087C133.81 99.035 133.499 98.9482 133.075 98.9482H132.369V101.122ZM135.876 99.9602C135.876 100.748 135.628 101.351 135.134 101.769C134.643 102.186 133.943 102.395 133.035 102.395H132.369V105H130.816V97.6757H133.155C134.044 97.6757 134.718 97.8678 135.179 98.2518C135.643 98.6326 135.876 99.202 135.876 99.9602ZM144.419 101.328C144.419 102.54 144.119 103.472 143.517 104.123C142.916 104.775 142.055 105.1 140.932 105.1C139.81 105.1 138.949 104.775 138.347 104.123C137.746 103.472 137.446 102.537 137.446 101.318C137.446 100.099 137.746 99.1686 138.347 98.5274C138.952 97.8828 139.817 97.5605 140.942 97.5605C142.068 97.5605 142.928 97.8845 143.522 98.5324C144.12 99.1803 144.419 100.112 144.419 101.328ZM139.074 101.328C139.074 102.146 139.229 102.762 139.54 103.176C139.85 103.591 140.315 103.798 140.932 103.798C142.171 103.798 142.791 102.974 142.791 101.328C142.791 99.678 142.175 98.853 140.942 98.853C140.325 98.853 139.859 99.0618 139.545 99.4792C139.231 99.8934 139.074 100.51 139.074 101.328ZM149.561 98.863C148.977 98.863 148.524 99.0835 148.204 99.5243C147.883 99.9618 147.723 100.573 147.723 101.358C147.723 102.991 148.335 103.808 149.561 103.808C150.076 103.808 150.698 103.679 151.43 103.422V104.724C150.829 104.975 150.157 105.1 149.416 105.1C148.351 105.1 147.536 104.778 146.971 104.133C146.407 103.485 146.125 102.557 146.125 101.348C146.125 100.586 146.263 99.9201 146.54 99.349C146.818 98.7745 147.215 98.3353 147.733 98.0314C148.254 97.7242 148.863 97.5705 149.561 97.5705C150.273 97.5705 150.987 97.7425 151.705 98.0865L151.204 99.349C150.931 99.2187 150.655 99.1052 150.378 99.0083C150.101 98.9115 149.828 98.863 149.561 98.863ZM156.607 105L154.844 99.2538H154.798C154.862 100.423 154.894 101.203 154.894 101.593V105H153.506V97.6757H155.62L157.353 103.277H157.383L159.222 97.6757H161.336V105H159.888V101.533C159.888 101.37 159.89 101.181 159.893 100.967C159.9 100.753 159.923 100.186 159.963 99.2638H159.918L158.03 105H156.607ZM170.346 101.328C170.346 102.54 170.045 103.472 169.444 104.123C168.843 104.775 167.981 105.1 166.859 105.1C165.737 105.1 164.875 104.775 164.274 104.123C163.673 103.472 163.372 102.537 163.372 101.318C163.372 100.099 163.673 99.1686 164.274 98.5274C164.878 97.8828 165.743 97.5605 166.869 97.5605C167.994 97.5605 168.854 97.8845 169.449 98.5324C170.047 99.1803 170.346 100.112 170.346 101.328ZM165 101.328C165 102.146 165.156 102.762 165.466 103.176C165.777 103.591 166.241 103.798 166.859 103.798C168.098 103.798 168.718 102.974 168.718 101.328C168.718 99.678 168.101 98.853 166.869 98.853C166.251 98.853 165.785 99.0618 165.471 99.4792C165.157 99.8934 165 100.51 165 101.328ZM175.052 105H173.499V98.9682H171.51V97.6757H177.041V98.9682H175.052V105ZM180.234 101.122H180.745C181.223 101.122 181.58 101.029 181.817 100.842C182.054 100.652 182.173 100.376 182.173 100.015C182.173 99.6512 182.073 99.3824 181.872 99.2087C181.675 99.035 181.365 98.9482 180.94 98.9482H180.234V101.122ZM183.741 99.9602C183.741 100.748 183.494 101.351 182.999 101.769C182.508 102.186 181.809 102.395 180.9 102.395H180.234V105H178.681V97.6757H181.021C181.909 97.6757 182.584 97.8678 183.044 98.2518C183.509 98.6326 183.741 99.202 183.741 99.9602Z" fill="#FFF7F4"/>
</svg>
