<svg width="207" height="69" viewBox="0 0 207 69" fill="none" xmlns="http://www.w3.org/2000/svg">
<path d="M80.3338 45.9991C77.2925 45.9991 74.6647 47.0421 72.5383 49.1685C70.4119 51.2949 69.3505 53.8787 69.3505 56.9603C69.3505 60.0456 70.4119 62.6294 72.5383 64.7522C74.6647 66.8786 77.2888 67.9179 80.3338 67.9179C83.3971 67.9179 86.0029 66.8749 88.1256 64.7522C90.252 62.6258 91.3353 60.0419 91.3353 56.9603C91.3353 53.8751 90.252 51.2912 88.1256 49.1685C86.0029 47.0421 83.3971 45.9991 80.3338 45.9991ZM85.2745 61.9634C83.9424 63.2955 82.2954 63.9652 80.3374 63.9652C78.3977 63.9652 76.7545 63.2992 75.4186 61.9634C74.0865 60.6311 73.4167 58.9623 73.4167 56.964C73.4167 54.9657 74.0828 53.2968 75.4186 51.9609C76.7508 50.6288 78.3977 49.9591 80.3374 49.9591C82.2954 49.9591 83.9424 50.6251 85.2745 51.9609C86.6105 53.2932 87.2765 54.962 87.2765 56.964C87.2765 58.966 86.6068 60.6275 85.2745 61.9634ZM109.027 46.5408H113.089V67.3799H109.027V58.8781H98.8562V67.3799H94.7938V46.5408H98.8562V55.0206H109.027V46.5408ZM156.975 49.8126C155.226 47.269 152.703 45.9991 149.388 45.9991C146.493 45.9991 144.033 47.0604 141.991 49.1868C139.948 51.3132 138.928 53.897 138.928 56.9603C138.928 60.0016 139.948 62.6294 141.991 64.7522C144.033 66.8786 146.493 67.9179 149.388 67.9179C152.7 67.9179 155.221 66.6479 156.975 64.0823V67.3762H161.038V46.5371H156.975V49.8126ZM154.973 62.0255C153.648 63.3687 151.972 64.0275 149.974 64.0275C147.994 64.0275 146.317 63.3724 144.993 62.0255C143.649 60.6604 142.991 58.9842 142.991 56.9603C142.991 54.9364 143.667 53.2822 144.993 51.939C146.335 50.5739 147.994 49.8968 149.974 49.8968C151.972 49.8968 153.63 50.5739 154.973 51.939C156.297 53.2822 156.975 54.9401 156.975 56.9603C156.975 58.9806 156.316 60.6604 154.973 62.0255ZM206.961 46.5408V67.3799H202.898V58.6585H192.728V67.3799H188.665V46.5408H192.728V54.8047H202.898V46.5408H206.961ZM135.389 46.5554V67.3945H131.326V50.475H123.608L123.476 55.1999C123.44 57.9192 123.285 59.6905 122.646 62.0695C121.815 65.3523 120.003 67.3945 116.266 67.5446C115.776 67.5446 115.362 67.5079 114.982 67.3945V63.8848C115.245 63.9616 115.548 63.9982 115.812 63.9982C118.495 63.9982 119.435 61.4327 119.549 54.9766L119.706 46.5591H135.389V46.5554ZM180.8 46.5408H183.988V67.3799H179.988V53.4395L168.88 67.3799H165.692V46.5408H169.693V60.4592L180.8 46.5408ZM180.636 39.8213L177.093 39.8103C177.063 41.1791 176.148 42.0977 174.809 42.0977C173.462 42.0977 172.558 41.1791 172.558 39.814L169.049 39.8176C169.082 43.1298 171.409 45.355 174.842 45.355C178.275 45.3623 180.603 43.1334 180.636 39.8213Z" fill="#2FCBFF"/>
<path d="M0 47.6946C5.2226 59.955 17.3806 68.5483 31.5443 68.5483C26.3216 56.2879 14.1636 47.6946 0 47.6946Z" fill="#00BE64"/>
<path d="M31.5443 68.5475C41.9492 68.5475 50.9122 62.3624 54.9564 53.469C44.5515 53.469 35.5885 59.654 31.5443 68.5475Z" fill="#00BE64"/>
<path d="M57.251 25.7065C57.251 39.9031 45.7407 51.4133 31.5443 51.4133C17.3477 51.4133 5.83749 39.9031 5.83749 25.7065C5.83749 11.5099 17.3477 -0.000244141 31.5443 -0.000244141C45.7407 -0.000244141 57.251 11.5099 57.251 25.7065Z" fill="#FFB900"/>
<path d="M44.3979 25.7064C44.3979 32.8065 38.6446 38.5598 31.5445 38.5598C24.4443 38.5598 18.6911 32.8065 18.6911 25.7064C18.6911 18.6063 24.4443 12.853 31.5445 12.853C38.6446 12.853 44.3979 18.6063 44.3979 25.7064Z" fill="#003C96"/>
<path d="M133.518 15.2864H138.895V36.1257H133.518V28.0081H124.13V36.1257H118.754V15.2864H124.13V22.9648H133.518V15.2864ZM141.428 20.4541H148.121V36.1257H153.498V20.4541H160.107V15.2864H141.428V20.4541ZM186.176 31.591V36.0195C185.261 36.477 184.115 36.7075 182.776 36.7075C179.984 36.7075 178.579 35.4888 178.014 33.5345L177.926 33.6662C176.302 35.7084 174.051 36.7075 171.134 36.7075C168.342 36.7075 165.967 35.6644 163.964 33.5382C162.006 31.4118 161.007 28.7876 161.007 25.7023C161.007 22.6172 162.006 20.0332 163.964 17.9106C165.967 15.7842 168.342 14.7009 171.134 14.7009C173.923 14.7009 176.101 15.6195 177.707 17.4824V15.2828H183.084V30.021C183.084 31.28 183.658 31.9315 184.804 31.9315C185.338 31.9351 185.796 31.8179 186.176 31.591ZM177.926 25.706C177.926 23.9968 177.385 22.5805 176.262 21.4972C175.179 20.3737 173.802 19.832 172.138 19.832C170.472 19.832 169.096 20.3737 168.012 21.4972C166.929 22.5805 166.387 23.9968 166.387 25.706C166.387 27.4151 166.929 28.8316 168.012 29.9551C169.096 31.0384 170.472 31.5801 172.138 31.5801C173.802 31.5801 175.179 31.0384 176.262 29.9551C177.385 28.8316 177.926 27.4151 177.926 25.706ZM74.463 15.2864L74.3021 23.1148C74.2655 26.2843 74.1484 27.8507 73.6908 29.644C73.2699 31.3641 72.4685 31.8473 71.2095 31.8473C70.7886 31.8473 70.408 31.807 70.1006 31.6935V36.122C70.5215 36.3489 71.2095 36.466 72.1245 36.466C75.9051 36.3526 77.7387 34.5665 78.6537 31.3605C79.3015 29.0695 79.4186 27.3127 79.532 24.6776L79.6528 20.4505H86.3283V36.122H91.7046V15.2828H74.463V15.2864ZM100.356 27.1115C100.935 30.6688 103.756 31.8327 106.619 31.8327C108.514 31.8327 110.502 31.0934 111.724 29.9844L115.04 33.3185C113.06 35.5108 110.304 36.7075 106.534 36.7075C101.257 36.7075 94.896 33.593 94.896 25.706C94.896 17.8154 101.023 14.7046 106.227 14.7046C112.807 14.7046 115.533 17.7972 115.533 21.263C115.533 26.9285 108.328 29.5452 100.356 27.1115ZM109.696 21.8742C109.696 20.2566 108.097 19.5356 106.304 19.5356C103.566 19.5356 101.195 20.6921 100.474 23.6638C106.051 25.2778 109.696 24.0737 109.696 21.8742Z" fill="#003C96"/>
</svg>
