<svg width="204" height="43" viewBox="0 0 204 43" fill="none" xmlns="http://www.w3.org/2000/svg">
<path d="M23.7914 32.8772C26.3403 32.5831 28.722 31.4569 30.5695 29.672C32.417 27.8871 33.6276 25.5426 34.0149 22.9998C34.2123 21.2196 33.9993 19.4176 33.3924 17.7329C32.7855 16.0481 31.801 14.5255 30.5146 13.2824C29.2282 12.0393 27.6743 11.1089 25.9727 10.5628C24.271 10.0167 22.467 9.86949 20.6997 10.1326C18.1507 10.4262 15.7688 11.5524 13.9213 13.3373C12.0737 15.1223 10.8632 17.467 10.4762 20.0099C9.49065 27.5005 16.0395 33.8291 23.7914 32.8772ZM0.113108 23.6998C-1.28323 10.0999 10.4437 -1.23446 24.5175 0.108262C34.9307 1.10568 43.3529 9.24483 44.3839 19.3065C45.7802 32.9052 34.0475 44.2384 19.9736 42.891C9.5628 41.8959 1.13825 33.7591 0.10729 23.6975L0.113108 23.6998ZM51.2434 7.01785C51.0971 6.27266 51.1195 5.50407 51.3089 4.76871C51.4983 4.03335 51.8499 3.34998 52.3378 2.76896C52.8256 2.18794 53.4373 1.72409 54.1278 1.4116C54.8182 1.0991 55.5698 0.945922 56.3272 0.963357H88.8967C89.1691 0.953593 89.4387 1.02165 89.674 1.1596C89.9094 1.29755 90.1007 1.49971 90.2259 1.74251C90.351 1.98532 90.4047 2.25878 90.3807 2.53102C90.3568 2.80326 90.2561 3.06307 90.0906 3.28016L67.5584 32.0093H85.2115C85.969 31.9916 86.7207 32.1446 87.4112 32.4571C88.1018 32.7695 88.7136 33.2333 89.2015 33.8144C89.6894 34.3955 90.041 35.0789 90.2303 35.8144C90.4196 36.5499 90.4419 37.3185 90.2953 38.0637C89.9974 39.2294 89.3122 40.2585 88.3528 40.9816C87.3934 41.7047 86.2169 42.0786 85.0172 42.0417H49.6434C49.3735 42.0509 49.1066 41.983 48.8737 41.8461C48.6408 41.7091 48.4514 41.5087 48.3276 41.2682C48.2037 41.0276 48.1506 40.7567 48.1742 40.4871C48.1979 40.2174 48.2974 39.96 48.4612 39.7448L71.0131 10.997H56.5215C55.3215 11.034 54.1447 10.6602 53.1849 9.93713C52.2251 9.21406 51.5395 8.18487 51.241 7.01902L51.2434 7.01785ZM193.617 6.11376C193.63 4.75328 194.174 3.45197 195.132 2.48835C196.09 1.52473 197.386 0.975365 198.743 0.957832C200.1 0.940299 201.41 1.45599 202.393 2.39454C203.375 3.33309 203.952 4.61992 204 5.9796V40.5964C203.99 40.8735 203.904 41.1425 203.751 41.3736C203.598 41.6046 203.385 41.7888 203.134 41.9057C202.883 42.0226 202.605 42.0677 202.33 42.0359C202.056 42.0041 201.795 41.8967 201.577 41.7256L173.476 20.1884V37.0348C173.428 38.3944 172.851 39.6812 171.869 40.6198C170.887 41.5585 169.577 42.0744 168.22 42.0571C166.864 42.0399 165.567 41.4909 164.609 40.5276C163.651 39.5644 163.107 38.2634 163.093 36.903V2.4099C163.103 2.1326 163.188 1.86331 163.341 1.63189C163.494 1.40046 163.707 1.21593 163.958 1.09876C164.209 0.981584 164.487 0.936336 164.762 0.968032C165.037 0.999728 165.298 1.10713 165.516 1.27833L193.615 22.8179V6.11259L193.617 6.11376ZM124.52 0.00093754C141.72 0.00093754 155.667 9.6263 155.667 21.495C155.667 33.3636 141.718 42.9913 124.516 42.9913C107.314 42.9913 93.3661 33.3683 93.3661 21.4973C93.3661 9.6263 107.313 0.00210402 124.516 0.00210402L124.52 0.00093754ZM145.283 21.495C145.283 16.0833 136.405 10.0346 124.52 10.0346C112.634 10.0346 103.75 16.0903 103.75 21.4961C103.75 26.902 112.629 32.9588 124.516 32.9588C136.403 32.9588 145.281 26.9078 145.281 21.4961L145.283 21.495Z" fill="#005BFF"/>
</svg>
