<svg width="269" height="62" viewBox="0 0 269 62" fill="none" xmlns="http://www.w3.org/2000/svg">
<path fill-rule="evenodd" clip-rule="evenodd" d="M58.495 6.93348C58.495 3.10477 55.3902 0 51.5615 0H6.93348C3.10477 0.00149268 0 3.10477 0 6.93348V29.2505C0 45.4042 13.0953 58.4995 29.249 58.4995C45.4042 58.4995 58.4995 45.4042 58.4995 29.2505L58.495 6.93348Z" fill="#FFCE00"/>
<path fill-rule="evenodd" clip-rule="evenodd" d="M36.8871 36.9857C36.8871 34.8287 34.3391 33.2629 32.115 35.0123C30.3805 37.2275 31.9896 39.7382 34.1346 39.7382C35.6422 39.7382 36.8871 38.4948 36.8871 36.9857ZM27.1175 36.9857C27.1175 35.4781 25.8741 34.2585 24.3382 34.2585C22.1648 34.2585 20.5975 36.7856 22.3977 39.065C24.6666 40.7009 27.1175 39.1053 27.1175 36.9857Z" fill="#1D1D1B"/>
<path fill-rule="evenodd" clip-rule="evenodd" d="M180.462 39.159C180.502 41.8338 184.056 43.6773 186.622 40.4979V32.2494H196.723V40.4621C199.277 43.6907 202.885 41.8443 202.885 39.159V17.954C202.885 17.954 202.885 17.954 202.885 17.9525C200.329 14.7209 196.723 16.5688 196.723 19.2541V26.1622H186.596V17.9167C184.041 14.7328 180.46 16.5778 180.46 19.2526V39.159H180.462ZM107.005 22.5723V40.6457C107.005 40.6502 107.008 40.6576 107.011 40.6621C109.756 43.5833 113.239 41.8383 113.239 39.159V22.5723H119.214C122.485 20.0408 120.599 16.5106 117.878 16.5106H102.339C99.6182 16.5106 97.7315 20.0408 101.003 22.5723H107.005ZM85.3437 30.079L78.1461 17.7585C77.3221 16.3613 75.5772 15.8628 74.08 16.536C72.5575 17.4092 72.0858 19.2541 72.9575 20.7259L81.5598 35.2511C80.5194 35.9408 79.3939 36.1826 78.1699 36.29C76.4996 36.4393 75.3756 37.6364 75.3756 39.2082C75.3756 41.0786 76.8982 42.1264 78.4446 42.1264C81.936 42.1264 84.9795 40.3561 87.1738 37.8857C89.171 35.6407 90.692 32.7972 92.113 30.1283L97.1762 20.6259C97.9494 19.1541 97.4762 17.233 95.9029 16.4852C94.4326 15.7866 92.637 16.4106 91.8637 17.857L85.3437 30.079ZM207.773 29.2327C207.773 36.6647 213.284 42.1772 220.768 42.1772C230.284 42.1772 236.615 33.2226 232.472 22.853C231.62 20.7184 229.147 18.2884 226.999 17.4689C216.553 13.4879 207.773 19.8497 207.773 29.2327ZM227.551 29.2327C227.551 33.1987 224.807 36.1915 220.767 36.1915C216.726 36.1915 213.983 33.1987 213.983 29.2327C213.983 25.2666 216.726 22.2484 220.767 22.2484C224.807 22.2484 227.551 25.2666 227.551 29.2327ZM254.937 22.5962C256.634 22.5962 257.979 21.2737 257.979 19.6034C257.979 17.9824 256.633 16.6091 254.937 16.6091H250.298C242.715 16.6091 237.328 22.0216 237.328 29.2804C237.328 36.5393 242.715 41.9518 250.298 41.9518H254.937C256.634 41.9518 257.979 40.6293 257.979 38.959C257.979 37.3379 256.633 35.9661 254.937 35.9661H250.123C246.083 35.9661 243.415 33.1241 243.415 29.2819C243.415 25.4413 246.084 22.5977 250.123 22.5977H254.937V22.5962ZM141.949 41.2786C143.097 42.4503 145.016 42.5011 146.19 41.3278C147.338 40.2053 147.461 38.2589 146.314 37.0871L138.507 29.0312L146.015 21.2737C147.136 20.102 147.038 18.1809 145.89 17.0838C144.743 15.9105 142.822 15.9613 141.698 17.1345L133.942 25.1159C133.269 25.8159 132.794 25.9145 132.296 25.9145C131.523 25.9145 130.873 25.3905 130.873 24.5919V17.9227C128.322 14.7328 124.738 16.5778 124.738 19.2541V40.4934C127.292 43.6788 130.873 41.8353 130.873 39.159V32.121C132.141 32.4479 132.708 31.7195 133.942 32.9972L141.949 41.2786ZM149.581 29.2327C149.581 36.6647 155.094 42.1772 162.576 42.1772C172.091 42.1772 178.423 33.2226 174.279 22.853C173.427 20.7184 170.953 18.2884 168.807 17.4704C158.364 13.4864 149.581 19.8497 149.581 29.2327ZM169.361 29.2327C169.361 33.1987 166.617 36.1915 162.576 36.1915C158.536 36.1915 155.792 33.1987 155.792 29.2327C155.792 25.2666 158.536 22.2484 162.576 22.2484C166.618 22.2484 169.361 25.2666 169.361 29.2327ZM265.589 26.7877C267.235 26.7877 268.682 25.4413 268.682 23.671C268.682 21.9753 267.235 20.602 265.589 20.602C263.893 20.602 262.472 21.9738 262.472 23.671C262.472 25.4413 263.893 26.7877 265.589 26.7877ZM265.589 37.8365C267.235 37.8365 268.682 36.4393 268.682 34.7183C268.682 33.0226 267.235 31.6747 265.589 31.6747C263.893 31.6747 262.472 33.0226 262.472 34.7183C262.472 36.4393 263.893 37.8365 265.589 37.8365Z" fill="#2FA736"/>
<path d="M80.1239 57.529C79.3567 58.2813 78.3999 58.6575 77.2565 58.6575C76.1131 58.6575 75.1563 58.2813 74.3891 57.5141C73.6218 56.7468 73.2457 55.8065 73.2457 54.6631C73.2457 53.5197 73.6218 52.5793 74.3891 51.827C75.1563 51.0597 76.1131 50.6836 77.2565 50.6836C78.3999 50.6836 79.3567 51.0597 80.1239 51.827C80.8912 52.5793 81.2673 53.5197 81.2673 54.6631C81.2673 55.805 80.8912 56.7618 80.1239 57.529ZM75.1876 56.714C75.7354 57.2618 76.4251 57.529 77.2565 57.529C78.0864 57.529 78.7611 57.2633 79.3089 56.714C79.8567 56.1662 80.1388 55.4915 80.1388 54.6616C80.1388 53.8466 79.8567 53.1734 79.3089 52.6241C78.7611 52.0763 78.0864 51.7941 77.2565 51.7941C76.4266 51.7941 75.7369 52.0763 75.1876 52.6241C74.6398 53.1719 74.3726 53.8466 74.3726 54.6616C74.3726 55.4915 74.6398 56.1662 75.1876 56.714Z" fill="#1D1D1B"/>
<path d="M90.0577 51.3074V58.0289C90.0577 58.3424 89.8069 58.5932 89.4935 58.5932C89.1636 58.5932 88.9292 58.3424 88.9292 58.0289V55.0988H84.6199V58.0289C84.6199 58.3424 84.3691 58.5932 84.0556 58.5932C83.7257 58.5932 83.4914 58.3424 83.4914 58.0289V51.3074C83.4914 50.979 83.7257 50.7432 84.0556 50.7432C84.3691 50.7432 84.6199 50.9775 84.6199 51.3074V53.9868H88.9292V51.3074C88.9292 50.979 89.1636 50.7432 89.4935 50.7432C89.8069 50.7447 90.0577 50.979 90.0577 51.3074Z" fill="#1D1D1B"/>
<path d="M97.8778 58.0309V51.9512H94.9313L94.697 55.3351C94.5566 57.592 93.867 58.4996 92.3624 58.4996C91.6265 58.5623 91.6101 57.3562 92.3311 57.3875C93.1923 57.3875 93.5058 56.7919 93.6163 55.0843L93.867 51.4019C93.882 51.0884 94.1327 50.8376 94.4626 50.8376H98.4421C98.7555 50.8376 99.0063 51.0884 99.0063 51.4019V58.0294C99.0063 58.3428 98.7555 58.5936 98.4421 58.5936C98.1122 58.5951 97.8778 58.3443 97.8778 58.0309Z" fill="#1D1D1B"/>
<path d="M108.736 58.0305C108.736 58.344 108.485 58.5948 108.171 58.5948C107.858 58.5948 107.607 58.344 107.607 58.0305V57.7171C106.917 58.344 106.071 58.6575 105.084 58.6575C103.972 58.6575 103.047 58.2813 102.311 57.5141C101.575 56.7468 101.199 55.8065 101.214 54.6631C101.199 53.5197 101.559 52.5793 102.295 51.827C103.031 51.0597 103.971 50.6836 105.084 50.6836C106.088 50.6836 106.934 50.9971 107.607 51.6076V51.2777C107.607 50.9642 107.858 50.7134 108.171 50.7134C108.485 50.7134 108.736 50.9642 108.736 51.2777V58.0305ZM107.609 56.3229V53.0017C107.044 52.2031 106.246 51.7956 105.211 51.7956C104.381 51.7956 103.692 52.0613 103.142 52.6106C102.595 53.1585 102.327 53.8331 102.344 54.6631C102.327 55.493 102.595 56.1826 103.142 56.7319C103.69 57.2797 104.396 57.5469 105.226 57.5469C106.246 57.5439 107.044 57.1364 107.609 56.3229Z" fill="#1D1D1B"/>
<path d="M116.759 52.6716L112.372 58.3602C112.231 58.5632 112.01 58.6423 111.745 58.5632C111.479 58.4856 111.354 58.2975 111.354 57.999V51.3088C111.354 50.9804 111.588 50.7446 111.918 50.7446C112.231 50.7446 112.482 50.9789 112.482 51.3088V56.6675L116.838 51.0103C117.011 50.7759 117.214 50.7132 117.481 50.7908C117.747 50.8685 117.889 51.0565 117.889 51.3551V58.0303C117.889 58.3438 117.638 58.5945 117.324 58.5945C117.011 58.5945 116.76 58.3438 116.76 58.0303V52.6716H116.759ZM113.532 47.1711C113.609 47.8921 113.954 48.2518 114.581 48.2682C115.208 48.2533 115.553 47.8921 115.63 47.1711C115.662 46.3247 116.962 46.3412 116.868 47.3278C116.79 48.519 115.944 49.2399 114.581 49.2399C113.218 49.2399 112.372 48.519 112.293 47.3278C112.2 46.3412 113.5 46.3262 113.532 47.1711Z" fill="#1D1D1B"/>
<path d="M127.133 51.3074V58.0289C127.133 58.3424 126.882 58.5932 126.569 58.5932C126.239 58.5932 126.004 58.3424 126.004 58.0289V55.0988H121.695V58.0289C121.695 58.3424 121.444 58.5932 121.131 58.5932C120.801 58.5932 120.566 58.3424 120.566 58.0289V51.3074C120.566 50.979 120.801 50.7432 121.131 50.7432C121.444 50.7432 121.695 50.9775 121.695 51.3074V53.9868H126.004V51.3074C126.004 50.979 126.239 50.7432 126.569 50.7432C126.882 50.7447 127.133 50.979 127.133 51.3074Z" fill="#1D1D1B"/>
<path d="M132.945 53.1735C133.698 53.0959 133.698 54.3483 132.945 54.2856H129.796C129.043 54.3483 129.028 53.0944 129.796 53.1735H132.945Z" fill="#1D1D1B"/>
<path d="M135.641 51.4031C135.641 51.0896 135.892 50.8389 136.205 50.8389H140.091C140.404 50.8389 140.64 51.0732 140.64 51.3867C140.64 51.7166 140.404 51.9509 140.091 51.9509H136.77V58.0306C136.77 58.7665 135.641 58.7665 135.641 58.0306V51.4031Z" fill="#1D1D1B"/>
<path d="M147.723 52.6717L143.334 58.3603C143.194 58.5633 142.975 58.6424 142.707 58.5633C142.442 58.4856 142.315 58.2976 142.315 57.999V51.3089C142.315 50.9805 142.551 50.7446 142.879 50.7446C143.193 50.7446 143.443 50.979 143.443 51.3089V56.6676L147.799 51.0103C147.971 50.776 148.175 50.7133 148.441 50.7909C148.706 50.8685 148.848 51.0566 148.848 51.3551V58.0304C148.848 58.3438 148.597 58.5946 148.284 58.5946C147.971 58.5946 147.72 58.3438 147.72 58.0304V52.6717H147.723Z" fill="#1D1D1B"/>
<path d="M157.548 50.8389C157.861 50.8389 158.112 51.0896 158.112 51.3867V58.0306C158.112 58.344 157.861 58.5948 157.548 58.5948C157.219 58.5948 156.983 58.344 156.983 58.0306V51.9509H152.659V58.0306C152.659 58.344 152.408 58.5948 152.095 58.5948C151.766 58.5948 151.531 58.344 151.531 58.0306V51.3867C151.531 51.0896 151.766 50.8389 152.095 50.8389H157.548Z" fill="#1D1D1B"/>
<path d="M166.996 51.8419C167.686 52.6091 167.968 53.5182 167.858 54.5675C167.811 54.975 167.623 55.178 167.278 55.178H161.466C161.702 56.6035 162.814 57.5604 164.444 57.5604C165.274 57.5604 165.995 57.2947 166.59 56.7618C167.263 56.1826 167.938 57.0439 167.374 57.5454C166.575 58.2813 165.587 58.6575 164.397 58.6575C163.175 58.6575 162.188 58.2813 161.436 57.529C160.7 56.7618 160.324 55.805 160.324 54.6616C160.324 53.5182 160.7 52.5614 161.436 51.8091C162.188 51.0418 163.129 50.6657 164.256 50.6806C165.399 50.6821 166.307 51.0732 166.996 51.8419ZM166.745 54.1287C166.731 52.7345 165.696 51.7628 164.254 51.7628C162.812 51.7628 161.7 52.7345 161.464 54.1287H166.745Z" fill="#1D1D1B"/>
<path d="M176.507 51.8246C177.243 52.5769 177.62 53.5173 177.62 54.6607C177.62 55.8041 177.243 56.7445 176.507 57.5117C175.772 58.2789 174.846 58.6551 173.734 58.6551C172.747 58.6551 171.901 58.3416 171.228 57.7147V61.318C171.228 61.6315 170.977 61.8823 170.664 61.8823C170.335 61.8823 170.099 61.6315 170.099 61.318V51.2738C170.099 50.9603 170.35 50.6946 170.664 50.6946C170.977 50.6946 171.228 50.9603 171.228 51.2738V51.6186C171.901 50.9917 172.747 50.6782 173.751 50.6782C174.863 50.6812 175.772 51.0574 176.507 51.8246ZM175.678 56.7295C176.225 56.1817 176.493 55.4921 176.493 54.6607C176.493 53.8308 176.227 53.1561 175.678 52.6083C175.128 52.0604 174.455 51.7933 173.625 51.7933C172.576 51.7933 171.776 52.2008 171.228 52.9993V56.3205C171.729 57.0729 172.607 57.543 173.61 57.543C174.439 57.543 175.128 57.2773 175.678 56.7295Z" fill="#1D1D1B"/>
<path d="M187.524 51.3074V58.0289C187.524 58.3424 187.273 58.5932 186.959 58.5932C186.631 58.5932 186.395 58.3424 186.395 58.0289V52.4045L184.108 54.3316C183.966 54.4719 183.826 54.5361 183.686 54.5361C183.529 54.5361 183.387 54.4734 183.247 54.3316L180.975 52.4045V58.0289C180.975 58.3424 180.724 58.5932 180.396 58.5932C180.083 58.5932 179.847 58.3424 179.847 58.0289V51.3074C179.847 50.9477 180.112 50.7432 180.411 50.7432C180.536 50.7432 180.662 50.7909 180.802 50.8999L183.686 53.2344L186.553 50.8999C186.695 50.7909 186.819 50.7432 186.961 50.7432C187.258 50.7447 187.524 50.9477 187.524 51.3074Z" fill="#1D1D1B"/>
<path d="M197.239 58.0305C197.239 58.344 196.989 58.5948 196.675 58.5948C196.362 58.5948 196.111 58.344 196.111 58.0305V57.7171C195.421 58.344 194.575 58.6575 193.588 58.6575C192.476 58.6575 191.551 58.2813 190.815 57.5141C190.079 56.7468 189.703 55.8065 189.718 54.6631C189.701 53.5197 190.063 52.5793 190.798 51.827C191.534 51.0597 192.475 50.6836 193.588 50.6836C194.591 50.6836 195.438 50.9971 196.111 51.6076V51.2777C196.111 50.9642 196.362 50.7134 196.675 50.7134C196.989 50.7134 197.239 50.9642 197.239 51.2777V58.0305ZM196.111 56.3229V53.0017C195.547 52.2031 194.748 51.7956 193.714 51.7956C192.884 51.7956 192.194 52.0613 191.645 52.6106C191.097 53.1585 190.83 53.8331 190.846 54.6631C190.831 55.493 191.097 56.1826 191.645 56.7319C192.194 57.2797 192.899 57.5469 193.729 57.5469C194.748 57.5439 195.547 57.1364 196.111 56.3229Z" fill="#1D1D1B"/>
<path d="M206.264 51.8246C207 52.5769 207.376 53.5173 207.376 54.6607C207.376 55.8041 207 56.7445 206.264 57.5117C205.528 58.2789 204.603 58.6551 203.491 58.6551C202.504 58.6551 201.658 58.3416 200.984 57.7147V61.318C200.984 61.6315 200.734 61.8823 200.42 61.8823C200.092 61.8823 199.856 61.6315 199.856 61.318V51.2738C199.856 50.9603 200.107 50.6946 200.42 50.6946C200.734 50.6946 200.984 50.9603 200.984 51.2738V51.6186C201.658 50.9917 202.504 50.6782 203.507 50.6782C204.619 50.6812 205.528 51.0574 206.264 51.8246ZM205.434 56.7295C205.982 56.1817 206.249 55.4921 206.249 54.6607C206.249 53.8308 205.983 53.1561 205.434 52.6083C204.885 52.0604 204.212 51.7933 203.382 51.7933C202.332 51.7933 201.532 52.2008 200.984 52.9993V56.3205C201.486 57.0729 202.364 57.543 203.367 57.543C204.197 57.543 204.885 57.2773 205.434 56.7295Z" fill="#1D1D1B"/>
<path d="M215.228 57.6065C215.493 57.8408 215.51 58.217 215.274 58.4215C215.038 58.6558 214.695 58.6558 214.459 58.4215L210.73 54.9435V58.0304C210.73 58.3603 210.479 58.5946 210.166 58.5946C209.838 58.5946 209.602 58.3438 209.602 58.0304V51.2924C209.602 50.979 209.838 50.7446 210.166 50.7446C210.479 50.7446 210.73 50.979 210.73 51.3089V54.3494L214.35 50.9491C214.586 50.7461 214.929 50.7461 215.165 50.9491C215.399 51.1536 215.368 51.5283 215.102 51.779L211.844 54.6301L215.228 57.6065Z" fill="#1D1D1B"/>
<path d="M223.548 51.8419C224.237 52.6091 224.519 53.5182 224.409 54.5675C224.363 54.975 224.175 55.178 223.83 55.178H218.017C218.253 56.6035 219.365 57.5604 220.995 57.5604C221.825 57.5604 222.546 57.2947 223.142 56.7618C223.815 56.1826 224.49 57.0439 223.925 57.5454C223.127 58.2813 222.139 58.6575 220.949 58.6575C219.727 58.6575 218.74 58.2813 217.988 57.529C217.252 56.7618 216.875 55.805 216.875 54.6616C216.875 53.5182 217.252 52.5614 217.988 51.8091C218.74 51.0418 219.68 50.6657 220.807 50.6806C221.951 50.6821 222.86 51.0732 223.548 51.8419ZM223.297 54.1287C223.282 52.7345 222.248 51.7628 220.806 51.7628C219.364 51.7628 218.252 52.7345 218.016 54.1287H223.297Z" fill="#1D1D1B"/>
<path d="M228.078 58.0306V51.9509H226.04C225.712 51.9509 225.476 51.7166 225.476 51.4031C225.476 51.0747 225.712 50.8389 226.04 50.8389H231.242C231.571 50.8389 231.807 51.0732 231.807 51.4031C231.807 51.7166 231.572 51.9509 231.242 51.9509H229.205V58.0306C229.205 58.3605 228.971 58.5784 228.641 58.5784C228.329 58.5784 228.078 58.344 228.078 58.0306Z" fill="#1D1D1B"/>
</svg>
