<svg width="216" height="61" viewBox="0 0 216 61" fill="none" xmlns="http://www.w3.org/2000/svg">
<path d="M68.7976 0.239258H74.8574L81.7681 21.977L88.6336 0.239258H94.732L85.1976 28.5203H78.2869L68.7976 0.239258Z" fill="#043E44"/>
<path d="M116.109 18.4239C116.109 24.4451 111.667 29.0929 106.252 29.0929C103.3 29.0929 101.159 28.0035 99.7088 26.1404V36.6032H94.5V8.32217H99.7088V10.7074C101.166 8.85084 103.306 7.75488 106.252 7.75488C111.667 7.75488 116.109 12.4028 116.109 18.4239ZM110.893 18.4239C110.893 15.033 108.508 12.725 105.279 12.725C102.088 12.725 99.7023 15.0265 99.7023 18.4239C99.7023 21.8148 102.088 24.1226 105.279 24.1226C108.515 24.1162 110.893 21.8148 110.893 18.4239Z" fill="#043E44"/>
<path d="M130.046 7.9165V13.7313C127.339 13.409 123.903 14.6208 123.903 18.8626V28.5197H118.694V8.31622H123.903V11.7909C124.953 9.04456 127.5 7.9165 130.046 7.9165Z" fill="#043E44"/>
<path d="M130.17 18.4239C130.17 12.4028 134.895 7.75488 140.839 7.75488C146.776 7.75488 151.546 12.4028 151.546 18.4239C151.546 24.445 146.776 29.0929 140.839 29.0929C134.895 29.0864 130.17 24.4385 130.17 18.4239ZM146.331 18.4239C146.331 15.1491 143.946 12.8476 140.839 12.8476C137.77 12.8476 135.385 15.1491 135.385 18.4239C135.385 21.6987 137.77 24.0002 140.839 24.0002C143.946 23.9936 146.331 21.6924 146.331 18.4239Z" fill="#043E44"/>
<path d="M166.689 28.5191L159.333 19.3457V28.5191H154.125V0.238037H159.333V17.2055L166.283 8.31561H172.503L164.381 18.2949L172.742 28.5191H166.689Z" fill="#043E44"/>
<path d="M173.838 25.613C173.838 23.7113 175.373 22.177 177.274 22.177C179.176 22.177 180.71 23.7113 180.71 25.613C180.71 27.5148 179.176 29.0491 177.274 29.0491C175.373 29.0491 173.838 27.5148 173.838 25.613Z" fill="#043E44"/>
<path d="M195.33 7.9165V13.7313C192.622 13.409 189.187 14.6208 189.187 18.8626V28.5197H183.971V8.31622H189.187V11.7909C190.244 9.04456 192.783 7.9165 195.33 7.9165Z" fill="#043E44"/>
<path d="M215.818 8.32275V28.5262H210.609V26.2636C209.398 28.0815 207.296 29.0935 204.588 29.0935C200.308 29.0935 196.949 26.1024 196.949 20.7325V8.32928H202.158V20.0877C202.158 22.8339 203.814 24.2523 206.161 24.2523C208.707 24.2523 210.602 22.7566 210.602 19.2431V8.33563H215.818V8.32275Z" fill="#043E44"/>
<path d="M85.2306 55.5362H82.0202V42.3079H76.2698V55.5362H73.053V39.2329H85.2306V55.5362Z" fill="#043E44"/>
<path d="M93.7072 53.1387C94.874 53.1387 95.8024 52.6486 96.318 51.9718L98.7419 53.3706C97.6461 54.9566 95.8991 55.8654 93.662 55.8654C89.749 55.8654 87.28 53.1838 87.28 49.7155C87.28 46.2472 89.7747 43.5654 93.4301 43.5654C96.879 43.5654 99.3222 46.2924 99.3222 49.7155C99.3222 50.1604 99.2771 50.5536 99.2062 50.9468H90.426C90.845 52.4876 92.1214 53.1387 93.7072 53.1387ZM96.318 48.6196C95.9442 46.9434 94.6871 46.2666 93.4301 46.2666C91.8248 46.2666 90.7289 47.1304 90.3809 48.6196H96.318Z" fill="#043E44"/>
<path d="M113.647 49.7155C113.647 53.1838 111.087 55.8654 107.967 55.8654C106.265 55.8654 105.034 55.2337 104.196 54.1635V60.1976H101.192V43.8942H104.196V45.2675C105.034 44.1973 106.265 43.5654 107.967 43.5654C111.081 43.572 113.647 46.2472 113.647 49.7155ZM110.643 49.7155C110.643 47.7623 109.269 46.4342 107.406 46.4342C105.569 46.4342 104.189 47.7623 104.189 49.7155C104.189 51.6688 105.563 52.9969 107.406 52.9969C109.269 53.0032 110.643 51.6753 110.643 49.7155Z" fill="#043E44"/>
<path d="M121.357 53.1387C122.523 53.1387 123.452 52.6486 123.967 51.9718L126.391 53.3706C125.295 54.9566 123.548 55.8654 121.311 55.8654C117.398 55.8654 114.929 53.1838 114.929 49.7155C114.929 46.2472 117.424 43.5654 121.079 43.5654C124.528 43.5654 126.971 46.2924 126.971 49.7155C126.971 50.1604 126.926 50.5536 126.855 50.9468H118.075C118.488 52.4876 119.771 53.1387 121.357 53.1387ZM123.961 48.6196C123.587 46.9434 122.33 46.2666 121.073 46.2666C119.468 46.2666 118.372 47.1304 118.024 48.6196H123.961Z" fill="#043E44"/>
<path d="M136.074 55.5372L131.838 50.2511V55.5372H128.834V43.8948H131.838V49.0196L135.842 43.8948H139.426L134.746 49.645L139.568 55.5372H136.074Z" fill="#043E44"/>
<path d="M153.286 49.7155C153.286 53.1838 150.727 55.8654 147.607 55.8654C145.905 55.8654 144.673 55.2337 143.835 54.1635V60.1976H140.831V43.8942H143.835V45.2675C144.673 44.1973 145.905 43.5654 147.607 43.5654C150.72 43.572 153.286 46.2472 153.286 49.7155ZM150.282 49.7155C150.282 47.7623 148.909 46.4342 147.046 46.4342C145.208 46.4342 143.835 47.7623 143.835 49.7155C143.835 51.6688 145.208 52.9969 147.046 52.9969C148.909 53.0032 150.282 51.6753 150.282 49.7155Z" fill="#043E44"/>
<path d="M160.997 53.1389C162.164 53.1389 163.092 52.6489 163.607 51.972L166.032 53.3709C164.936 54.9567 163.189 55.8656 160.952 55.8656C157.038 55.8656 154.569 53.1839 154.569 49.7157C154.569 46.2474 157.064 43.5656 160.72 43.5656C164.168 43.5656 166.612 46.2926 166.612 49.7157C166.612 50.1606 166.567 50.5538 166.496 50.947H157.715C158.134 52.4878 159.411 53.1389 160.997 53.1389ZM156.781 41.1031C156.781 40.2393 157.503 39.5173 158.367 39.5173C159.23 39.5173 159.927 40.2393 159.927 41.1031C159.927 41.967 159.23 42.6632 158.367 42.6632C157.503 42.6632 156.781 41.9604 156.781 41.1031ZM163.607 48.6198C163.234 46.9437 161.977 46.2668 160.72 46.2668C159.114 46.2668 158.018 47.1306 157.67 48.6198H163.607ZM161.203 41.1031C161.203 40.2393 161.925 39.5173 162.789 39.5173C163.653 39.5173 164.349 40.2393 164.349 41.1031C164.349 41.967 163.653 42.6632 162.789 42.6632C161.925 42.6632 161.203 41.9604 161.203 41.1031Z" fill="#043E44"/>
<path d="M167.772 49.7155C167.772 46.2472 170.383 43.5654 173.922 43.5654C176.204 43.5654 178.183 44.7775 179.138 46.5697L176.552 48.0846C176.088 47.1304 175.083 46.5245 173.897 46.5245C172.104 46.5245 170.776 47.8524 170.776 49.7155C170.776 51.5529 172.104 52.8808 173.897 52.8808C175.108 52.8808 176.108 52.3006 176.572 51.3465L179.183 52.8356C178.183 54.6536 176.204 55.8654 173.922 55.8654C170.383 55.8654 167.772 53.1838 167.772 49.7155Z" fill="#043E44"/>
<path d="M190.27 46.7827H186.633V55.5372H183.63V46.7827H179.949V43.8948H190.262V46.7827H190.27Z" fill="#043E44"/>
<path d="M190.573 49.7155C190.573 46.2472 193.3 43.5654 196.723 43.5654C200.147 43.5654 202.892 46.2409 202.892 49.7155C202.892 53.1838 200.147 55.8654 196.723 55.8654C193.3 55.8654 190.573 53.1838 190.573 49.7155ZM199.889 49.7155C199.889 47.8267 198.514 46.5051 196.723 46.5051C194.956 46.5051 193.578 47.8332 193.578 49.7155C193.578 51.5979 194.951 52.9323 196.723 52.9323C198.514 52.9323 199.889 51.6044 199.889 49.7155Z" fill="#043E44"/>
<path d="M212.02 55.5372L207.778 50.2511V55.5372H204.775V43.8948H207.778V49.0196L211.783 43.8948H215.366L210.685 49.645L215.508 55.5372H212.02Z" fill="#043E44"/>
<path d="M43.8658 0H11.1722C5.02589 0 0 5.02584 0 11.1721V43.8658C0 50.0121 5.02589 55.0381 11.1722 55.0381H43.8658C50.0121 55.0381 55.0381 50.0121 55.0381 43.8658V11.1721C55.0381 5.03219 50.0121 0 43.8658 0Z" fill="#043E44"/>
<path d="M27.7879 19.173L19.4452 27.522L27.7879 35.8711C32.3961 40.4793 39.8654 40.4793 44.4672 35.8711C49.0754 31.2631 49.0754 23.7875 44.4672 19.1793C39.8591 14.565 32.3898 14.565 27.7879 19.173Z" fill="white"/>
<path d="M12.6924 27.5219L4.34962 19.1729C3.73562 18.5588 3.07098 18.0397 2.36837 17.5967V37.447C3.07098 37.004 3.73562 36.4786 4.34962 35.8647L12.6924 27.5219Z" fill="white"/>
<path d="M24.4078 39.2512L16.0713 30.9021L7.72854 39.2512C4.93707 42.0427 3.86099 45.9167 4.44967 49.5373C6.06379 51.4489 8.4818 52.6705 11.1783 52.6705H26.7245C28.807 48.284 28.0348 42.8782 24.4078 39.2512Z" fill="white"/>
<path d="M7.728 15.7925L16.0644 24.1415L24.4072 15.7925C28.0343 12.1654 28.7938 6.75349 26.7112 2.36694H11.1714C8.47493 2.36694 6.05691 3.58858 4.44279 5.50646C3.86045 9.12078 4.94286 13.0073 7.728 15.7925Z" fill="white"/>
</svg>
