<svg width="253" height="49" viewBox="0 0 253 49" fill="none" xmlns="http://www.w3.org/2000/svg">
<path d="M63.0414 45.6603H59.1149V40.1071H46.9988V45.6603H43.0724V36.5171H44.8112C45.447 35.0213 45.9517 33.3759 46.3258 31.581C46.6997 29.7486 46.9802 27.8789 47.1671 25.9716C47.3915 24.0271 47.5223 22.0638 47.5598 20.0819C47.6346 18.0626 47.672 16.1179 47.672 14.2483V11.8363H60.7977V36.5171H63.0414V45.6603ZM82.0569 38.1999C81.1594 38.9105 80.131 39.4714 78.9719 39.8827C77.8126 40.294 76.5224 40.4997 75.1015 40.4997C72.1846 40.4997 69.8848 39.3778 68.202 37.1342C66.5191 34.853 65.6777 31.5248 65.6777 27.1497C65.6777 24.8685 65.8274 22.7744 66.1265 20.8671C66.4631 18.96 66.9679 17.3146 67.641 15.9311C68.3516 14.51 69.249 13.4069 70.3335 12.6216C71.418 11.8363 72.7081 11.4436 74.2039 11.4436C75.3632 11.4436 76.4289 11.6867 77.4013 12.1728C78.3735 12.6216 79.1961 13.3695 79.8693 14.4165C80.5425 15.4636 81.066 16.8285 81.4399 18.5113C81.8138 20.1567 82.0008 22.1761 82.0008 24.5693V26.9813H70.2213C70.2213 30.1973 70.6514 32.6281 71.5114 34.2735C72.409 35.9187 73.7365 36.7415 75.494 36.7415C76.7281 36.7415 77.8126 36.5359 78.7474 36.1245C79.7197 35.6757 80.4863 35.2457 81.0472 34.8344L82.0569 38.1999ZM40.5482 11.8363V40.1071H36.2291V27.4302H29.7222V40.1071H25.347V11.8363H29.7222V23.8401H36.2291V11.8363H40.5482ZM90.8635 26.0278V40.1071H86.4882V11.8363H90.8635V24.9059L97.6508 11.8363H102.082L95.0705 25.1302L103.092 40.1071H98.3238L90.8635 26.0278ZM113.357 40.4997C110.328 40.4997 107.953 39.3031 106.233 36.9098C104.513 34.4791 103.653 30.833 103.653 25.9716C103.653 23.7653 103.858 21.7647 104.27 19.9697C104.718 18.1748 105.354 16.6603 106.177 15.4262C107.037 14.1548 108.084 13.1825 109.318 12.5094C110.589 11.7989 112.048 11.4436 113.693 11.4436C114.965 11.4436 115.993 11.5932 116.778 11.8924C117.564 12.1541 118.274 12.4907 118.91 12.902L118.293 17.0529C117.695 16.5294 116.984 16.0807 116.161 15.7066C115.376 15.2953 114.535 15.0896 113.637 15.0896C112.067 15.0896 110.776 15.9685 109.767 17.7259C108.757 19.4836 108.252 22.1574 108.252 25.7473C108.252 29.2998 108.664 32.0484 109.486 33.993C110.346 35.9001 111.674 36.8537 113.469 36.8537C114.553 36.8537 115.488 36.6855 116.274 36.3488C117.059 35.9749 117.713 35.5636 118.237 35.1149L119.246 38.3681C118.499 39.0039 117.657 39.5274 116.722 39.9387C115.787 40.3128 114.666 40.4997 113.357 40.4997ZM56.4786 15.3701H51.5984V15.8749C51.5984 17.3708 51.5611 19.0161 51.4863 20.8111C51.4489 22.5687 51.3367 24.3636 51.1497 26.1961C50.9628 28.0283 50.7009 29.842 50.3644 31.637C50.0278 33.3947 49.5604 35.0213 48.9621 36.5171H56.4786V15.3701ZM74.2039 15.0335C72.8577 15.0335 71.9041 15.8002 71.3432 17.3334C70.7822 18.8292 70.4269 20.8485 70.2775 23.3914H77.5133C77.5133 22.1947 77.4573 21.0916 77.3451 20.0819C77.2329 19.0349 77.046 18.1374 76.7841 17.3894C76.5598 16.6415 76.2232 16.0619 75.7745 15.6506C75.3632 15.2392 74.8396 15.0335 74.2039 15.0335Z" fill="black"/>
<path d="M136.536 11.7795C136.237 10.7324 135.975 9.76016 135.751 8.86268C135.564 7.9278 135.377 6.99292 135.19 6.05803H135.021C135.134 7.96519 135.19 9.94715 135.19 12.0039V40.1065H132.722V0H135.975L142.762 25.6345C142.912 26.158 143.061 26.8872 143.211 27.822C143.398 28.7196 143.529 29.5423 143.604 30.2902H143.772C143.884 29.5423 144.034 28.7196 144.221 27.822C144.408 26.8872 144.576 26.158 144.726 25.6345L151.569 0H154.71V40.1065H152.018V12.0039C152.018 11.0316 152.036 10.0593 152.074 9.08705C152.111 8.07738 152.167 7.0677 152.242 6.05803H152.018C151.756 7.17989 151.513 8.17086 151.288 9.03096C151.101 9.89105 150.896 10.7511 150.671 11.6112L144.669 33.9362H142.482L136.536 11.7795Z" fill="black"/>
<path d="M166.594 38.5359C167.903 38.5359 169.005 37.9936 169.903 36.9091C170.837 35.8246 171.567 34.5159 172.091 32.9827V25.1857H169.062C166.706 25.1857 164.967 25.7467 163.845 26.8685C162.724 27.9903 162.162 29.7853 162.162 32.2533C162.162 34.2728 162.555 35.8246 163.341 36.9091C164.162 37.9936 165.248 38.5359 166.594 38.5359ZM172.876 40.1065C172.764 39.7324 172.633 39.2651 172.483 38.7041C172.372 38.1058 172.277 37.3018 172.202 36.2921C171.53 37.6383 170.688 38.7041 169.678 39.4893C168.669 40.2747 167.454 40.6673 166.033 40.6673C164.126 40.6673 162.574 39.9568 161.377 38.5359C160.18 37.0773 159.582 35.058 159.582 32.4778C159.582 29.4488 160.387 27.1676 161.994 25.6344C163.602 24.0638 165.939 23.2785 169.005 23.2785H172.091V19.7447C172.091 17.5758 171.698 16.0052 170.912 15.0329C170.127 14.0606 168.95 13.5745 167.379 13.5745C166.182 13.5745 165.06 13.8549 164.014 14.4159C162.967 14.9394 162.106 15.6873 161.434 16.6596L160.704 14.1354C161.264 13.3875 162.106 12.7331 163.228 12.1721C164.387 11.5738 165.771 11.2747 167.379 11.2747C169.735 11.2747 171.53 11.9478 172.764 13.294C174.036 14.6028 174.671 16.6596 174.671 19.4643V34.8898C174.671 35.862 174.728 36.8531 174.839 37.8627C174.952 38.835 175.102 39.5829 175.288 40.1065H172.876Z" fill="black"/>
<path d="M188.559 38.5359C190.354 38.5359 191.794 37.47 192.878 35.3385C193.962 33.1695 194.505 29.8413 194.505 25.354C194.505 21.6144 194.037 18.7163 193.102 16.6596C192.168 14.6028 190.878 13.5745 189.232 13.5745C188.597 13.5745 187.98 13.7427 187.381 14.0793C186.82 14.3785 186.278 14.7898 185.754 15.3134C185.268 15.8369 184.819 16.4539 184.407 17.1643C183.997 17.8375 183.641 18.548 183.342 19.2959V35.1142C183.903 36.2733 184.595 37.1335 185.418 37.6945C186.241 38.2554 187.287 38.5359 188.559 38.5359ZM188.391 40.6112C187.307 40.6112 186.316 40.3869 185.418 39.9381C184.557 39.4519 183.865 38.8536 183.342 38.1432V48.8569H180.706V11.8356H183.006L183.23 16.4913C183.865 15.1451 184.707 13.9484 185.754 12.9013C186.801 11.8169 188.11 11.2747 189.681 11.2747C190.84 11.2747 191.887 11.6112 192.821 12.2843C193.757 12.9574 194.542 13.911 195.177 15.1451C195.814 16.3417 196.299 17.8001 196.637 19.5203C196.973 21.2031 197.141 23.0728 197.141 25.1295C197.141 30.3276 196.338 34.2166 194.728 36.7969C193.121 39.3397 191.008 40.6112 188.391 40.6112Z" fill="black"/>
<path d="M204.816 40.1061H202.179V11.8352H204.816V25.1292L214.295 11.8352H216.876L207.564 24.9609L217.549 40.1061H214.631L204.816 25.4658V40.1061Z" fill="black"/>
<path d="M221.323 26.4197C221.398 30.3088 221.94 33.2818 222.949 35.3385C223.959 37.3578 225.493 38.3675 227.55 38.3675C228.484 38.3675 229.307 38.218 230.017 37.9187C230.728 37.6197 231.327 37.2644 231.812 36.8531C232.373 36.4416 232.86 35.9368 233.27 35.3385L234.112 37.47C233.663 38.1058 233.121 38.6479 232.486 39.0967C231.924 39.5081 231.232 39.8634 230.409 40.1625C229.588 40.499 228.615 40.6673 227.493 40.6673C224.502 40.6673 222.294 39.3771 220.875 36.7969C219.453 34.2166 218.743 30.6081 218.743 25.9709C218.743 23.6525 218.948 21.5958 219.36 19.8008C219.771 17.9683 220.332 16.4165 221.042 15.1451C221.791 13.8736 222.668 12.92 223.679 12.2843C224.688 11.6112 225.792 11.2747 226.988 11.2747C228.223 11.2747 229.325 11.5925 230.298 12.2282C231.27 12.8639 232.073 13.8175 232.71 15.089C233.345 16.3605 233.794 17.9497 234.057 19.8568C234.318 21.7267 234.336 23.9142 234.112 26.4197H221.323ZM226.988 13.4623C225.493 13.4623 224.203 14.3971 223.117 16.2669C222.071 18.0993 221.491 20.7918 221.378 24.3443H231.644C231.869 20.5674 231.495 17.8189 230.522 16.0986C229.588 14.3411 228.409 13.4623 226.988 13.4623Z" fill="black"/>
<path d="M245.732 14.0228V40.1061H243.095V14.0228H236.533V11.8352H252.239V14.0228H245.732Z" fill="black"/>
<path d="M11.8356 24.737L4.99226 40.1065H0L7.51645 23.6712C5.75887 22.7737 4.33785 21.4648 3.25338 19.7448C2.16893 17.9871 1.62669 15.6125 1.62669 12.6209C1.62669 10.5268 1.92586 8.69441 2.52418 7.1238C3.1599 5.51581 4.00129 4.18827 5.04836 3.14121C6.13283 2.09413 7.38556 1.30884 8.80658 0.785302C10.2276 0.261768 11.7234 0 13.294 0H19.7448V40.1065H15.4255V24.737H11.8356ZM15.4255 3.64604H13.1257C12.2657 3.64604 11.4243 3.81432 10.6016 4.15087C9.77887 4.45004 9.04966 4.95487 8.41394 5.66539C7.77822 6.3385 7.25469 7.25469 6.84333 8.41394C6.46937 9.5358 6.2824 10.9381 6.2824 12.6209C6.2824 14.2289 6.45069 15.5751 6.78723 16.6596C7.16119 17.7441 7.64733 18.6229 8.24566 19.2959C8.88138 19.969 9.61058 20.4552 10.4333 20.7544C11.2934 21.0161 12.1909 21.147 13.1257 21.147H15.4255V3.64604Z" fill="black"/>
</svg>
